<svg viewBox="0 0 24 24"><path fill-rule="evenodd" clip-rule="evenodd" d="M11.5443 5.07173C10.0868 5.52377 8.55144 6 7.00001 6C5.9728 6 5.05445 5.89085 4.27915 5.74188C3.75131 5.64047 3.39967 5.57333 3.14638 5.53985C3.09648 5.53325 3.05516 5.52865 3.02121 5.52551C3.01903 5.54751 3.01685 5.5734 3.01484 5.60359C3.00054 5.81883 3.00001 6.11984 3.00001 6.58885L3.00001 17.3373C3.00001 17.3744 3.00004 17.3983 3.00031 17.4168C3.00252 17.4203 3.00482 17.4239 3.00717 17.4275C3.00951 17.4311 3.01184 17.4346 3.01413 17.4381C3.5354 17.6589 4.71281 18 7.00001 18C7.55229 18 8.00001 18.4477 8.00001 19C8.00001 19.5523 7.55229 20 7.00001 20C4.45447 20 2.98405 19.6111 2.1643 19.2495C2.16193 19.2485 2.1593 19.2473 2.15643 19.246C2.11309 19.227 2.01375 19.1835 1.90469 19.112C1.7935 19.039 1.70064 18.9568 1.61921 18.8791C1.49326 18.7589 1.38794 18.606 1.33171 18.5197C1.27548 18.4334 1.17809 18.2754 1.11895 18.1116C0.999866 17.7819 0.99994 17.5478 1 17.3507L1.00001 6.55506C0.999992 6.12959 0.99998 5.76088 1.01924 5.471C1.03722 5.2004 1.07777 4.82202 1.27256 4.48818C1.37861 4.30643 1.51696 4.11439 1.71995 3.94669C1.92293 3.77899 2.13763 3.67936 2.33612 3.60951C2.71485 3.47624 3.129 3.52015 3.40848 3.55709C3.72704 3.5992 4.13696 3.67797 4.62506 3.77177L4.65652 3.77781C5.3228 3.90583 6.11417 4 7.00001 4C8.23458 4 9.48584 3.61372 11.0264 3.13813C11.1266 3.10718 11.2281 3.07585 11.3309 3.04422C12.9616 2.54246 14.837 2 17 2C19.5455 2 21.016 2.38891 21.8357 2.7505C21.8381 2.75155 21.8407 2.7527 21.8436 2.75396C21.8869 2.77295 21.9863 2.81648 22.0953 2.88804C22.2065 2.961 22.2994 3.04322 22.3808 3.12094C22.5068 3.24114 22.6121 3.39405 22.6683 3.4803C22.7245 3.56656 22.8219 3.72464 22.8811 3.88838C23.0001 4.21806 23.0001 4.45216 23 4.6493L23 15.445C23 15.8704 23 16.2391 22.9808 16.529C22.9628 16.7996 22.9222 17.178 22.7274 17.5118C22.6214 17.6936 22.4831 17.8856 22.2801 18.0533C22.0771 18.221 21.8624 18.3206 21.6639 18.3905C21.2852 18.5238 20.871 18.4798 20.5915 18.4429C20.273 18.4008 19.8631 18.322 19.375 18.2282L19.3435 18.2222C19.0489 18.1656 18.7298 18.1156 18.3888 18.0774C17.8399 18.016 17.4448 17.5213 17.5062 16.9724C17.5676 16.4235 18.0624 16.0284 18.6112 16.0898C19.007 16.1341 19.3779 16.1922 19.7209 16.2581C20.2487 16.3595 20.6003 16.4267 20.8536 16.4602C20.9035 16.4667 20.9449 16.4713 20.9788 16.4745C20.981 16.4525 20.9832 16.4266 20.9852 16.3964C20.9995 16.1812 21 15.8802 21 15.4111V4.66274C21 4.62557 21 4.60174 20.9997 4.58315C20.9975 4.57965 20.9952 4.57608 20.9928 4.57247C20.9905 4.56888 20.9882 4.56536 20.9859 4.56194C20.4646 4.34105 19.2872 4 17 4C15.163 4 13.5384 4.45754 11.9191 4.95578C11.7948 4.99404 11.6698 5.03279 11.5443 5.07173ZM21.0972 16.4803C21.0995 16.4801 21.1007 16.48 21.101 16.48L21.0972 16.4803ZM2.9028 5.5197C2.90033 5.51993 2.89903 5.51999 2.89899 5.51996L2.9028 5.5197ZM18 7C18.5523 7 19 7.44771 19 8V12C19 12.5523 18.5523 13 18 13C17.4477 13 17 12.5523 17 12V8C17 7.44771 17.4477 7 18 7ZM12 9.5C11.1716 9.5 10.5 10.1716 10.5 11C10.5 11.5523 10.0523 12 9.50001 12C8.94772 12 8.50001 11.5523 8.50001 11C8.50001 9.067 10.067 7.5 12 7.5C13.933 7.5 15.5 9.067 15.5 11C15.5 11.5523 15.0523 12 14.5 12C13.9477 12 13.5 11.5523 13.5 11C13.5 10.1716 12.8284 9.5 12 9.5ZM6.00001 9C6.55229 9 7.00001 9.44771 7.00001 10V14C7.00001 14.5523 6.55229 15 6.00001 15C5.44772 15 5.00001 14.5523 5.00001 14V10C5.00001 9.44771 5.44772 9 6.00001 9Z"></path><path fill-rule="evenodd" clip-rule="evenodd" d="M15.2988 17.2754C14.9036 17.6613 14.2705 17.6538 13.8847 17.2587L13.1001 16.4553L13.1 22C13.1 22.5523 12.6523 23 12.1 23C11.5477 23 11.1 22.5523 11.1 22L11.1001 16.4553L10.3155 17.2587C9.92967 17.6538 9.29655 17.6613 8.90142 17.2754C8.5063 16.8896 8.49879 16.2564 8.88466 15.8613L11.3847 13.3013C11.5728 13.1086 11.8308 13 12.1001 13C12.3694 13 12.6274 13.1086 12.8155 13.3013L15.3155 15.8613C15.7014 16.2564 15.6939 16.8896 15.2988 17.2754Z"></path></svg>